M48
; DRILL file {KiCad (5.1.9)-1} date 08/12/21 11:56:07
; FORMAT={-:-/ absolute / metric / decimal}
; #@! TF.CreationDate,2021-08-12T11:56:07-03:00
; #@! TF.GenerationSoftware,Kicad,Pcbnew,(5.1.9)-1
; #@! TF.FileFunction,Plated,1,2,PTH
FMAT,2
METRIC
T1C0.700
T2C0.800
T3C0.900
T4C1.000
T5C1.100
T6C1.200
T7C1.300
%
G90
G05
T1
X123.92Y-79.0
X125.325Y-63.925
X129.0Y-79.0
X132.425Y-83.425
X132.45Y-80.8
X132.475Y-78.275
X132.945Y-63.925
X135.28Y-63.925
X140.045Y-83.425
X140.07Y-80.8
X140.095Y-78.275
X142.9Y-63.925
T2
X125.77Y-67.675
X125.77Y-75.295
X128.31Y-67.675
X128.31Y-75.295
X130.85Y-67.675
X130.85Y-75.295
X136.77Y-67.6
X136.77Y-75.22
X139.31Y-67.6
X139.31Y-75.22
X141.85Y-67.6
X141.85Y-75.22
T3
X127.0Y-83.0
X127.0Y-85.54
T4
X116.275Y-81.1
X116.275Y-83.64
X116.275Y-86.18
X116.275Y-88.72
X116.275Y-91.26
X116.275Y-93.8
X116.275Y-96.34
X116.275Y-98.88
X116.275Y-103.96
X116.275Y-106.5
X116.275Y-109.04
X116.275Y-111.58
X116.275Y-114.12
X116.275Y-116.66
X164.535Y-77.04
X164.535Y-79.58
X164.535Y-82.12
X164.535Y-84.66
X164.535Y-87.2
X164.535Y-89.74
X164.535Y-92.28
X164.535Y-94.82
X164.535Y-98.88
X164.535Y-101.42
X164.535Y-103.96
X164.535Y-106.5
X164.535Y-109.04
X164.535Y-111.58
X164.535Y-114.12
X164.535Y-116.66
T5
X134.25Y-88.0
X134.25Y-94.5
X138.75Y-88.0
X138.75Y-94.5
T6
X132.9Y-111.89
X135.4Y-111.89
X137.9Y-116.896
X140.4Y-111.89
X142.9Y-111.89
T7
X130.84Y-55.5
X135.92Y-55.5
X141.0Y-55.5
T0
M30
